<svg xmlns="http://www.w3.org/2000/svg" xmlns:xlink="http://www.w3.org/1999/xlink" contentStyleType="text/css" data-diagram-type="ACTIVITY" height="1635px" preserveAspectRatio="none" style="width:1147px;height:1635px;background:#FFFFFF;" version="1.1" viewBox="0 0 1147 1635" width="1147px" zoomAndPan="magnify"><title>VisionPark - Activity Diagram ghi nh&#7853;n xe v&#224;o</title><defs/><g><g class="title" data-source-line="1"><text fill="#000000" font-family="sans-serif" font-size="14" font-weight="bold" lengthAdjust="spacing" textLength="304.9785" x="419.8121" y="34.5332">VisionPark - Activity Diagram ghi nh&#7853;n xe v&#224;o</text></g><rect fill="#E8EEF5" height="15.0938" style="stroke:#E8EEF5;stroke-width:1;" width="1114.6028" x="15" y="49.7461"/><ellipse cx="133.7001" cy="79.8398" fill="#287A4D" rx="10" ry="10" style="stroke:#222222;stroke-width:1;"/><rect fill="#EAF2FF" height="33.8359" rx="5" ry="5" style="stroke:#376AA6;stroke-width:0.5;" width="86.6553" x="90.3724" y="109.8398"/><text fill="#000000" font-family="sans-serif" font-size="11" lengthAdjust="spacing" textLength="66.6553" x="100.3724" y="131.2588">Xe &#273;&#7871;n l&#224;n IN</text><rect fill="#EAF2FF" height="33.8359" rx="5" ry="5" style="stroke:#376AA6;stroke-width:0.5;" width="147.7729" x="59.8136" y="163.6758"/><text fill="#000000" font-family="sans-serif" font-size="11" lengthAdjust="spacing" textLength="127.7729" x="69.8136" y="185.0947">Ki&#7875;m tra lane v&#224; l&#7845;y frame</text><polygon fill="#FFF4CC" points="91.8055,217.5117,175.5946,217.5117,187.5946,229.5117,175.5946,241.5117,91.8055,241.5117,79.8055,229.5117,91.8055,217.5117" style="stroke:#A97800;stroke-width:0.5;"/><text fill="#000000" font-family="sans-serif" font-size="11" lengthAdjust="spacing" textLength="83.7891" x="91.8055" y="234.0127">ALPR &#273;ang b&#7853;n?</text><text fill="#000000" font-family="sans-serif" font-size="11" lengthAdjust="spacing" textLength="14.0615" x="65.744" y="227.0947">C&#243;</text><text fill="#000000" font-family="sans-serif" font-size="11" lengthAdjust="spacing" textLength="31.8076" x="187.5946" y="227.0947">Kh&#244;ng</text><rect fill="#EAF2FF" height="33.8359" rx="5" ry="5" style="stroke:#376AA6;stroke-width:0.5;" width="86.0376" x="21" y="251.5117"/><text fill="#000000" font-family="sans-serif" font-size="11" lengthAdjust="spacing" textLength="66.0376" x="31" y="272.9307">B&#7887; qua frame</text><ellipse cx="64.0188" cy="316.3477" fill="none" rx="11" ry="11" style="stroke:#222222;stroke-width:1;"/><ellipse cx="64.0188" cy="316.3477" fill="#222222" rx="6" ry="6" style="stroke:#222222;stroke-width:1;"/><rect fill="#EAF2FF" height="33.8359" rx="5" ry="5" style="stroke:#376AA6;stroke-width:0.5;" width="152.6875" x="127.0376" y="251.5117"/><text fill="#000000" font-family="sans-serif" font-size="11" lengthAdjust="spacing" textLength="132.6875" x="137.0376" y="272.9307">G&#7917;i frame + lane_id + JWT</text><line style="stroke:#A9B7C6;stroke-width:1.5;" x1="15" x2="15" y1="49.7461" y2="1623.8945"/><rect fill="#EAF2FF" height="33.8359" rx="5" ry="5" style="stroke:#376AA6;stroke-width:0.5;" width="154.5405" x="307.4712" y="347.3477"/><text fill="#000000" font-family="sans-serif" font-size="11" lengthAdjust="spacing" textLength="134.5405" x="317.4712" y="368.7666">X&#225;c th&#7921;c, ki&#7875;m tra &#7843;nh/lane</text><rect fill="#EAF2FF" height="33.8359" rx="5" ry="5" style="stroke:#376AA6;stroke-width:0.5;" width="190.0327" x="289.7251" y="401.1836"/><text fill="#000000" font-family="sans-serif" font-size="11" lengthAdjust="spacing" textLength="170.0327" x="299.7251" y="422.6025">Nh&#7853;n di&#7879;n bi&#7875;n s&#7889; v&#224; l&#432;u detection</text><rect fill="#FFECEC" height="47.6719" rx="5" ry="5" style="stroke:#376AA6;stroke-width:0.5;" width="132.1914" x="318.6458" y="503.9375"/><text fill="#000000" font-family="sans-serif" font-size="11" lengthAdjust="spacing" textLength="112.1914" x="328.6458" y="525.3564">Tr&#7843; l&#7895;i + correlation_id;</text><text fill="#000000" font-family="sans-serif" font-size="11" lengthAdjust="spacing" textLength="102.1421" x="328.6458" y="539.1924">cleanup &#7843;nh n&#7871;u c&#7847;n</text><ellipse cx="384.7415" cy="597.6094" fill="none" rx="11" ry="11" style="stroke:#222222;stroke-width:1;"/><ellipse cx="384.7415" cy="597.6094" fill="#222222" rx="6" ry="6" style="stroke:#222222;stroke-width:1;"/><polygon fill="#FFF4CC" points="340.0862,455.0195,429.3967,455.0195,441.3967,467.0195,429.3967,479.0195,340.0862,479.0195,328.0862,467.0195,340.0862,455.0195" style="stroke:#A97800;stroke-width:0.5;"/><text fill="#000000" font-family="sans-serif" font-size="11" lengthAdjust="spacing" textLength="31.8076" x="388.7415" y="490.4385">Kh&#244;ng</text><text fill="#000000" font-family="sans-serif" font-size="11" lengthAdjust="spacing" textLength="89.3105" x="340.0862" y="471.5205">X&#7917; l&#253; th&#224;nh c&#244;ng?</text><line style="stroke:#A9B7C6;stroke-width:1.5;" x1="283.7251" x2="283.7251" y1="49.7461" y2="1623.8945"/><rect fill="#EAF2FF" height="33.8359" rx="5" ry="5" style="stroke:#376AA6;stroke-width:0.5;" width="196.7251" x="493.7485" y="650.6094"/><text fill="#000000" font-family="sans-serif" font-size="11" lengthAdjust="spacing" textLength="176.7251" x="503.7485" y="672.0283">Hi&#7875;n th&#7883; bbox, bi&#7875;n s&#7889; v&#224; confidence</text><rect fill="#EAF2FF" height="33.8359" rx="5" ry="5" style="stroke:#376AA6;stroke-width:0.5;" width="204.7065" x="489.7578" y="753.3633"/><text fill="#000000" font-family="sans-serif" font-size="11" lengthAdjust="spacing" textLength="184.7065" x="499.7578" y="774.7822">Nh&#226;n vi&#234;n x&#225;c nh&#7853;n ho&#7863;c s&#7917;a bi&#7875;n s&#7889;</text><polygon fill="#FFF4CC" points="555.1123,704.4453,629.1099,704.4453,641.1099,716.4453,629.1099,728.4453,555.1123,728.4453,543.1123,716.4453,555.1123,704.4453" style="stroke:#A97800;stroke-width:0.5;"/><text fill="#000000" font-family="sans-serif" font-size="11" lengthAdjust="spacing" textLength="14.0615" x="596.1111" y="739.8643">C&#243;</text><text fill="#000000" font-family="sans-serif" font-size="11" lengthAdjust="spacing" textLength="73.9976" x="555.1123" y="720.9463">C&#7847;n x&#225;c nh&#7853;n?</text><polygon fill="#FFF4CC" points="592.1111,807.1992,604.1111,819.1992,592.1111,831.1992,580.1111,819.1992,592.1111,807.1992" style="stroke:#A97800;stroke-width:0.5;"/><rect fill="#FFECEC" height="47.6719" rx="5" ry="5" style="stroke:#376AA6;stroke-width:0.5;" width="98.2944" x="542.9639" y="900.1172"/><text fill="#000000" font-family="sans-serif" font-size="11" lengthAdjust="spacing" textLength="69.7168" x="552.9639" y="921.5361">Th&#244;ng b&#225;o l&#7895;i;</text><text fill="#000000" font-family="sans-serif" font-size="11" lengthAdjust="spacing" textLength="78.2944" x="552.9639" y="935.3721">gi&#7919; barrier &#273;&#243;ng</text><ellipse cx="592.1111" cy="993.7891" fill="none" rx="11" ry="11" style="stroke:#222222;stroke-width:1;"/><ellipse cx="592.1111" cy="993.7891" fill="#222222" rx="6" ry="6" style="stroke:#222222;stroke-width:1;"/><polygon fill="#FFF4CC" points="553.646,851.1992,630.5762,851.1992,642.5762,863.1992,630.5762,875.1992,553.646,875.1992,541.646,863.1992,553.646,851.1992" style="stroke:#A97800;stroke-width:0.5;"/><text fill="#000000" font-family="sans-serif" font-size="11" lengthAdjust="spacing" textLength="31.8076" x="596.1111" y="886.6182">Kh&#244;ng</text><text fill="#000000" font-family="sans-serif" font-size="11" lengthAdjust="spacing" textLength="76.9302" x="553.646" y="867.7002">Bi&#7875;n s&#7889; h&#7907;p l&#7879;?</text><line style="stroke:#A9B7C6;stroke-width:1.5;" x1="483.7578" x2="483.7578" y1="49.7461" y2="1623.8945"/><rect fill="#EAF2FF" height="33.8359" rx="5" ry="5" style="stroke:#376AA6;stroke-width:0.5;" width="224.7568" x="738.9819" y="1046.7891"/><text fill="#000000" font-family="sans-serif" font-size="11" lengthAdjust="spacing" textLength="204.7568" x="748.9819" y="1068.208">Ki&#7875;m tra s&#7913;c ch&#7913;a v&#224; l&#432;&#7907;t PARKED tr&#249;ng</text><rect fill="#FFECEC" height="47.6719" rx="5" ry="5" style="stroke:#376AA6;stroke-width:0.5;" width="136.2036" x="783.2585" y="1149.543"/><text fill="#000000" font-family="sans-serif" font-size="11" lengthAdjust="spacing" textLength="116.2036" x="793.2585" y="1170.9619">T&#7915; ch&#7889;i / x&#7917; l&#253; override;</text><text fill="#000000" font-family="sans-serif" font-size="11" lengthAdjust="spacing" textLength="110.6982" x="793.2585" y="1184.7979">ghi audit n&#7871;u can thi&#7879;p</text><ellipse cx="851.3604" cy="1229.8789" fill="none" rx="11" ry="11" style="stroke:#222222;stroke-width:1;"/><ellipse cx="851.3604" cy="1229.8789" fill="#222222" rx="6" ry="6" style="stroke:#222222;stroke-width:1;"/><polygon fill="#FFF4CC" points="807.3308,1100.625,895.3899,1100.625,907.3899,1112.625,895.3899,1124.625,807.3308,1124.625,795.3308,1112.625,807.3308,1100.625" style="stroke:#A97800;stroke-width:0.5;"/><text fill="#000000" font-family="sans-serif" font-size="11" lengthAdjust="spacing" textLength="31.8076" x="855.3604" y="1136.0439">Kh&#244;ng</text><text fill="#000000" font-family="sans-serif" font-size="11" lengthAdjust="spacing" textLength="88.0591" x="807.3308" y="1117.126">&#272;&#7911; &#273;i&#7873;u ki&#7879;n v&#224;o?</text><rect fill="#EAF2FF" height="33.8359" rx="5" ry="5" style="stroke:#376AA6;stroke-width:0.5;" width="208.2998" x="747.2104" y="1282.8789"/><text fill="#000000" font-family="sans-serif" font-size="11" lengthAdjust="spacing" textLength="188.2998" x="757.2104" y="1304.2979">X&#225;c &#273;&#7883;nh v&#233; MONTHLY ho&#7863;c CASUAL</text><rect fill="#EAF2FF" height="47.6719" rx="5" ry="5" style="stroke:#376AA6;stroke-width:0.5;" width="137.4443" x="782.6382" y="1336.7148"/><text fill="#000000" font-family="sans-serif" font-size="11" lengthAdjust="spacing" textLength="117.3906" x="792.6382" y="1358.1338">T&#7841;o giao d&#7883;ch PARKED;</text><text fill="#000000" font-family="sans-serif" font-size="11" lengthAdjust="spacing" textLength="117.4443" x="792.6382" y="1371.9697">l&#432;u &#7843;nh v&#224;o v&#224; audit log</text><polygon fill="#FFF4CC" points="800.6116,1404.3867,902.1091,1404.3867,914.1091,1416.3867,902.1091,1428.3867,800.6116,1428.3867,788.6116,1416.3867,800.6116,1404.3867" style="stroke:#A97800;stroke-width:0.5;"/><text fill="#000000" font-family="sans-serif" font-size="11" lengthAdjust="spacing" textLength="101.4976" x="800.6116" y="1420.8877">Commit th&#224;nh c&#244;ng?</text><text fill="#000000" font-family="sans-serif" font-size="11" lengthAdjust="spacing" textLength="31.8076" x="756.804" y="1413.9697">Kh&#244;ng</text><text fill="#000000" font-family="sans-serif" font-size="11" lengthAdjust="spacing" textLength="14.0615" x="914.1091" y="1413.9697">C&#243;</text><rect fill="#FFECEC" height="47.6719" rx="5" ry="5" style="stroke:#376AA6;stroke-width:0.5;" width="98.2944" x="729.4644" y="1438.3867"/><text fill="#000000" font-family="sans-serif" font-size="11" lengthAdjust="spacing" textLength="45.2407" x="739.4644" y="1459.8057">Rollback;</text><text fill="#000000" font-family="sans-serif" font-size="11" lengthAdjust="spacing" textLength="78.2944" x="739.4644" y="1473.6416">gi&#7919; barrier &#273;&#243;ng</text><ellipse cx="778.6116" cy="1517.0586" fill="none" rx="11" ry="11" style="stroke:#222222;stroke-width:1;"/><ellipse cx="778.6116" cy="1517.0586" fill="#222222" rx="6" ry="6" style="stroke:#222222;stroke-width:1;"/><rect fill="#EAF2FF" height="33.8359" rx="5" ry="5" style="stroke:#376AA6;stroke-width:0.5;" width="126.7021" x="860.7581" y="1438.3867"/><text fill="#000000" font-family="sans-serif" font-size="11" lengthAdjust="spacing" textLength="106.7021" x="870.7581" y="1459.8057">Tr&#7843; allow_open = true</text><line style="stroke:#A9B7C6;stroke-width:1.5;" x1="723.4644" x2="723.4644" y1="49.7461" y2="1623.8945"/><rect fill="#EAF2FF" height="33.8359" rx="5" ry="5" style="stroke:#376AA6;stroke-width:0.5;" width="127.4756" x="997.4602" y="1548.0586"/><text fill="#000000" font-family="sans-serif" font-size="11" lengthAdjust="spacing" textLength="107.4756" x="1007.4602" y="1569.4775">M&#7903; barrier cho xe v&#224;o</text><ellipse cx="1061.198" cy="1612.8945" fill="none" rx="11" ry="11" style="stroke:#222222;stroke-width:1;"/><ellipse cx="1061.198" cy="1612.8945" fill="#222222" rx="6" ry="6" style="stroke:#222222;stroke-width:1;"/><line style="stroke:#A9B7C6;stroke-width:1.5;" x1="991.4602" x2="991.4602" y1="49.7461" y2="1623.8945"/><line style="stroke:#A9B7C6;stroke-width:1.5;" x1="1128.9358" x2="1128.9358" y1="49.7461" y2="1623.8945"/><line style="stroke:#181818;stroke-width:1;" x1="133.7001" x2="133.7001" y1="89.8398" y2="109.8398"/><polygon fill="#181818" points="129.7001,99.8398,133.7001,109.8398,137.7001,99.8398,133.7001,103.8398" style="stroke:#181818;stroke-width:1;"/><line style="stroke:#181818;stroke-width:1;" x1="133.7001" x2="133.7001" y1="143.6758" y2="163.6758"/><polygon fill="#181818" points="129.7001,153.6758,133.7001,163.6758,137.7001,153.6758,133.7001,157.6758" style="stroke:#181818;stroke-width:1;"/><line style="stroke:#181818;stroke-width:1;" x1="64.0188" x2="64.0188" y1="285.3477" y2="305.3477"/><polygon fill="#181818" points="60.0188,295.3477,64.0188,305.3477,68.0188,295.3477,64.0188,299.3477" style="stroke:#181818;stroke-width:1;"/><line style="stroke:#181818;stroke-width:1;" x1="79.8055" x2="64.0188" y1="229.5117" y2="229.5117"/><line style="stroke:#181818;stroke-width:1;" x1="64.0188" x2="64.0188" y1="229.5117" y2="251.5117"/><polygon fill="#181818" points="60.0188,241.5117,64.0188,251.5117,68.0188,241.5117,64.0188,245.5117" style="stroke:#181818;stroke-width:1;"/><line style="stroke:#181818;stroke-width:1;" x1="187.5946" x2="203.3813" y1="229.5117" y2="229.5117"/><line style="stroke:#181818;stroke-width:1;" x1="203.3813" x2="203.3813" y1="229.5117" y2="251.5117"/><polygon fill="#181818" points="199.3813,241.5117,203.3813,251.5117,207.3813,241.5117,203.3813,245.5117" style="stroke:#181818;stroke-width:1;"/><line style="stroke:#181818;stroke-width:1;" x1="203.3813" x2="203.3813" y1="285.3477" y2="332.3477"/><line style="stroke:#181818;stroke-width:1;" x1="203.3813" x2="384.7415" y1="332.3477" y2="332.3477"/><line style="stroke:#181818;stroke-width:1;" x1="384.7415" x2="384.7415" y1="332.3477" y2="347.3477"/><polygon fill="#181818" points="380.7415,337.3477,384.7415,347.3477,388.7415,337.3477,384.7415,341.3477" style="stroke:#181818;stroke-width:1;"/><line style="stroke:#181818;stroke-width:1;" x1="133.7001" x2="133.7001" y1="197.5117" y2="217.5117"/><polygon fill="#181818" points="129.7001,207.5117,133.7001,217.5117,137.7001,207.5117,133.7001,211.5117" style="stroke:#181818;stroke-width:1;"/><line style="stroke:#181818;stroke-width:1;" x1="384.7415" x2="384.7415" y1="381.1836" y2="401.1836"/><polygon fill="#181818" points="380.7415,391.1836,384.7415,401.1836,388.7415,391.1836,384.7415,395.1836" style="stroke:#181818;stroke-width:1;"/><line style="stroke:#181818;stroke-width:1;" x1="384.7415" x2="384.7415" y1="551.6094" y2="586.6094"/><polygon fill="#181818" points="380.7415,576.6094,384.7415,586.6094,388.7415,576.6094,384.7415,580.6094" style="stroke:#181818;stroke-width:1;"/><line style="stroke:#181818;stroke-width:1;" x1="384.7415" x2="384.7415" y1="479.0195" y2="503.9375"/><polygon fill="#181818" points="380.7415,493.9375,384.7415,503.9375,388.7415,493.9375,384.7415,497.9375" style="stroke:#181818;stroke-width:1;"/><line style="stroke:#181818;stroke-width:1;" x1="441.3967" x2="592.1111" y1="467.0195" y2="467.0195"/><polygon fill="#181818" points="588.1111,560.7734,592.1111,570.7734,596.1111,560.7734,592.1111,564.7734" style="stroke:#181818;stroke-width:1;"/><line style="stroke:#181818;stroke-width:1;" x1="592.1111" x2="592.1111" y1="467.0195" y2="650.6094"/><polygon fill="#181818" points="588.1111,640.6094,592.1111,650.6094,596.1111,640.6094,592.1111,644.6094" style="stroke:#181818;stroke-width:1;"/><line style="stroke:#181818;stroke-width:1;" x1="384.7415" x2="384.7415" y1="435.0195" y2="455.0195"/><polygon fill="#181818" points="380.7415,445.0195,384.7415,455.0195,388.7415,445.0195,384.7415,449.0195" style="stroke:#181818;stroke-width:1;"/><line style="stroke:#181818;stroke-width:1;" x1="592.1111" x2="592.1111" y1="728.4453" y2="753.3633"/><polygon fill="#181818" points="588.1111,743.3633,592.1111,753.3633,596.1111,743.3633,592.1111,747.3633" style="stroke:#181818;stroke-width:1;"/><line style="stroke:#181818;stroke-width:1;" x1="641.1099" x2="704.4644" y1="716.4453" y2="716.4453"/><polygon fill="#181818" points="700.4644,760.2813,704.4644,770.2813,708.4644,760.2813,704.4644,764.2813" style="stroke:#181818;stroke-width:1;"/><line style="stroke:#181818;stroke-width:1;" x1="704.4644" x2="704.4644" y1="716.4453" y2="819.1992"/><line style="stroke:#181818;stroke-width:1;" x1="704.4644" x2="604.1111" y1="819.1992" y2="819.1992"/><polygon fill="#181818" points="614.1111,815.1992,604.1111,819.1992,614.1111,823.1992,610.1111,819.1992" style="stroke:#181818;stroke-width:1;"/><line style="stroke:#181818;stroke-width:1;" x1="592.1111" x2="592.1111" y1="787.1992" y2="807.1992"/><polygon fill="#181818" points="588.1111,797.1992,592.1111,807.1992,596.1111,797.1992,592.1111,801.1992" style="stroke:#181818;stroke-width:1;"/><line style="stroke:#181818;stroke-width:1;" x1="592.1111" x2="592.1111" y1="684.4453" y2="704.4453"/><polygon fill="#181818" points="588.1111,694.4453,592.1111,704.4453,596.1111,694.4453,592.1111,698.4453" style="stroke:#181818;stroke-width:1;"/><line style="stroke:#181818;stroke-width:1;" x1="592.1111" x2="592.1111" y1="947.7891" y2="982.7891"/><polygon fill="#181818" points="588.1111,972.7891,592.1111,982.7891,596.1111,972.7891,592.1111,976.7891" style="stroke:#181818;stroke-width:1;"/><line style="stroke:#181818;stroke-width:1;" x1="592.1111" x2="592.1111" y1="875.1992" y2="900.1172"/><polygon fill="#181818" points="588.1111,890.1172,592.1111,900.1172,596.1111,890.1172,592.1111,894.1172" style="stroke:#181818;stroke-width:1;"/><line style="stroke:#181818;stroke-width:1;" x1="642.5762" x2="851.3604" y1="863.1992" y2="863.1992"/><polygon fill="#181818" points="847.3604,956.9531,851.3604,966.9531,855.3604,956.9531,851.3604,960.9531" style="stroke:#181818;stroke-width:1;"/><line style="stroke:#181818;stroke-width:1;" x1="851.3604" x2="851.3604" y1="863.1992" y2="1046.7891"/><polygon fill="#181818" points="847.3604,1036.7891,851.3604,1046.7891,855.3604,1036.7891,851.3604,1040.7891" style="stroke:#181818;stroke-width:1;"/><line style="stroke:#181818;stroke-width:1;" x1="592.1111" x2="592.1111" y1="831.1992" y2="851.1992"/><polygon fill="#181818" points="588.1111,841.1992,592.1111,851.1992,596.1111,841.1992,592.1111,845.1992" style="stroke:#181818;stroke-width:1;"/><line style="stroke:#181818;stroke-width:1;" x1="851.3604" x2="851.3604" y1="1197.2148" y2="1218.8789"/><polygon fill="#181818" points="847.3604,1208.8789,851.3604,1218.8789,855.3604,1208.8789,851.3604,1212.8789" style="stroke:#181818;stroke-width:1;"/><line style="stroke:#181818;stroke-width:1;" x1="851.3604" x2="851.3604" y1="1124.625" y2="1149.543"/><polygon fill="#181818" points="847.3604,1139.543,851.3604,1149.543,855.3604,1139.543,851.3604,1143.543" style="stroke:#181818;stroke-width:1;"/><line style="stroke:#181818;stroke-width:1;" x1="907.3899" x2="929.4622" y1="1112.625" y2="1112.625"/><polygon fill="#181818" points="925.4622,1188.8789,929.4622,1198.8789,933.4622,1188.8789,929.4622,1192.8789" style="stroke:#181818;stroke-width:1;"/><line style="stroke:#181818;stroke-width:1;" x1="929.4622" x2="929.4622" y1="1112.625" y2="1262.8789"/><line style="stroke:#181818;stroke-width:1;" x1="929.4622" x2="851.3604" y1="1262.8789" y2="1262.8789"/><line style="stroke:#181818;stroke-width:1;" x1="851.3604" x2="851.3604" y1="1262.8789" y2="1282.8789"/><polygon fill="#181818" points="847.3604,1272.8789,851.3604,1282.8789,855.3604,1272.8789,851.3604,1276.8789" style="stroke:#181818;stroke-width:1;"/><line style="stroke:#181818;stroke-width:1;" x1="851.3604" x2="851.3604" y1="1080.625" y2="1100.625"/><polygon fill="#181818" points="847.3604,1090.625,851.3604,1100.625,855.3604,1090.625,851.3604,1094.625" style="stroke:#181818;stroke-width:1;"/><line style="stroke:#181818;stroke-width:1;" x1="851.3604" x2="851.3604" y1="1316.7148" y2="1336.7148"/><polygon fill="#181818" points="847.3604,1326.7148,851.3604,1336.7148,855.3604,1326.7148,851.3604,1330.7148" style="stroke:#181818;stroke-width:1;"/><line style="stroke:#181818;stroke-width:1;" x1="778.6116" x2="778.6116" y1="1486.0586" y2="1506.0586"/><polygon fill="#181818" points="774.6116,1496.0586,778.6116,1506.0586,782.6116,1496.0586,778.6116,1500.0586" style="stroke:#181818;stroke-width:1;"/><line style="stroke:#181818;stroke-width:1;" x1="788.6116" x2="778.6116" y1="1416.3867" y2="1416.3867"/><line style="stroke:#181818;stroke-width:1;" x1="778.6116" x2="778.6116" y1="1416.3867" y2="1438.3867"/><polygon fill="#181818" points="774.6116,1428.3867,778.6116,1438.3867,782.6116,1428.3867,778.6116,1432.3867" style="stroke:#181818;stroke-width:1;"/><line style="stroke:#181818;stroke-width:1;" x1="914.1091" x2="924.1091" y1="1416.3867" y2="1416.3867"/><line style="stroke:#181818;stroke-width:1;" x1="924.1091" x2="924.1091" y1="1416.3867" y2="1438.3867"/><polygon fill="#181818" points="920.1091,1428.3867,924.1091,1438.3867,928.1091,1428.3867,924.1091,1432.3867" style="stroke:#181818;stroke-width:1;"/><line style="stroke:#181818;stroke-width:1;" x1="924.1091" x2="924.1091" y1="1472.2227" y2="1533.0586"/><line style="stroke:#181818;stroke-width:1;" x1="924.1091" x2="1061.198" y1="1533.0586" y2="1533.0586"/><line style="stroke:#181818;stroke-width:1;" x1="1061.198" x2="1061.198" y1="1533.0586" y2="1548.0586"/><polygon fill="#181818" points="1057.198,1538.0586,1061.198,1548.0586,1065.198,1538.0586,1061.198,1542.0586" style="stroke:#181818;stroke-width:1;"/><line style="stroke:#181818;stroke-width:1;" x1="851.3604" x2="851.3604" y1="1384.3867" y2="1404.3867"/><polygon fill="#181818" points="847.3604,1394.3867,851.3604,1404.3867,855.3604,1394.3867,851.3604,1398.3867" style="stroke:#181818;stroke-width:1;"/><line style="stroke:#181818;stroke-width:1;" x1="1061.198" x2="1061.198" y1="1581.8945" y2="1601.8945"/><polygon fill="#181818" points="1057.198,1591.8945,1061.198,1601.8945,1065.198,1591.8945,1061.198,1595.8945" style="stroke:#181818;stroke-width:1;"/><text fill="#26384A" font-family="sans-serif" font-size="12" lengthAdjust="spacing" textLength="52.6934" x="123.0159" y="62.2031">Station UI</text><text fill="#26384A" font-family="sans-serif" font-size="12" lengthAdjust="spacing" textLength="114.3984" x="326.5422" y="62.2031">Backend API + ALPR</text><text fill="#26384A" font-family="sans-serif" font-size="12" lengthAdjust="spacing" textLength="101.3965" x="552.9128" y="62.2031">Station / Nh&#226;n vi&#234;n</text><text fill="#26384A" font-family="sans-serif" font-size="12" lengthAdjust="spacing" textLength="110.0508" x="802.4369" y="62.2031">Parking Module / DB</text><text fill="#26384A" font-family="sans-serif" font-size="12" lengthAdjust="spacing" textLength="36.0059" x="1042.1951" y="62.2031">Barrier</text><!--SRC=[ZLL1JnD15BxlhtY95uWOAArGsnYptRQAG6sWA2OcPBexxKwwdQdRtG9Q3yO31mxQaqT1OWWQeWOJOpV6mnB_n_uJt-nsOQ46xQbzxyrxt_UzRwOESomA3rcN2LubTWjkWAexhCUSRIWoqhH96vec0su6msCEMnHw_fvGb6wByGwHsJhHMqrRkDpGX2Lik5OEFucAhaaCiSbu4nh4wj949Zoc2vjJ6r8pYGGN1ktI3gGooMh2Ms4mcmYI6Erp1Q1m6Kj9BSyY5im8sw3sA9gUdrFLEOmYmxRWHk4l53AQbYX8dbPlpMTdPZ2vwX3R6GLdi_DgfeZ1qbaJDPrMqog6oe8xg-mPXLHAUP7KPPErBS9f1FtYYCAy9W7Mv7h6MMLBfVBDE2tRnoZcqjcCcan4SsTnhj97l0wk6TOM-afNObTownHE1y7m5mVBt-EmKCahkKKMUA_QuDW4GdIuSB22uOTjQ21gcbTO0oRKfUeA7YMurBfqnfr9S4pAOKBpJoOHGAuGUA_XgKlYGm1THtGKYWQ0YKNJ_yQROTtTm3jcKH5S3mTkC0E_tNzKookK6wo1oAK2-1tKwWAcvEm-OlVtTHmQU5_rAMYTWmw61zoSbfsGJ2NohO7f7GvrMSMX6tY3YDRlBouOrA6w52PYjew0K8sVs1ebCK6NKC_edID7avIqafQhsJWG1VBUCiI6PhQf5UgCFF9Fk6vHmjrEX0euQks27WmF-Raa8vBnUgQXOlhlEVIO_v4ZptiHQCbq5-friJKrnaCNlC4ColNHTZGv0BQaGD757LjFOaIo3amH3B_hilCnIOw9To6x5nBJ4TH1HxBVkKgYC09rVrz4Gg4kJMpo6HyFssPu-Ky7_WblZaaYNoJvRYmBmyLdQXgAXVu5WoA68nrqH754ueqY8WUgwifYgOWr_W_PLy8-VHDuXpW9JxzqGyEW8-HhTXNomFiKjXymdBuLMqFqAE8sgEI1ZoDn3UR4koLoLR9vvnAToB1utRnTT4BFFuBb1vNQlQN7iUYQkhgcBg5fQy4GbMeo8i30QjqSqS5neMCZBqde8UTel2L6F3NHRkFl_xJlYh0i-OJ_SoNXnOtj4vcUM9ROt10Tx7mRfNPfyiQ6NN1Rou7txgofRehuFoIloBv_0000]--></g></svg>