<svg xmlns="http://www.w3.org/2000/svg" xmlns:xlink="http://www.w3.org/1999/xlink" contentStyleType="text/css" data-diagram-type="DESCRIPTION" height="1294px" preserveAspectRatio="none" style="width:2531px;height:1294px;background:#FFFFFF;" version="1.1" viewBox="0 0 2531 1294" width="2531px" zoomAndPan="magnify"><title>VisionPark - Component Diagram (H&#7879; th&#7889;ng ho&#224;n ch&#7881;nh)</title><defs/><g><g class="title" data-source-line="1"><text fill="#000000" font-family="sans-serif" font-size="14" font-weight="bold" lengthAdjust="spacing" textLength="374.9033" x="1071.4418" y="24.5332">VisionPark - Component Diagram (H&#7879; th&#7889;ng ho&#224;n ch&#7881;nh)</text></g><!--cluster Frontend--><g class="cluster" data-entity="Frontend" data-source-line="30" data-uid="ent0005" id="cluster_Frontend"><rect fill="none" height="189" rx="2.5" ry="2.5" style="stroke:#181818;stroke-width:1;" width="444" x="1532.89" y="320.6094"/><text fill="#000000" font-family="sans-serif" font-size="14" font-weight="bold" lengthAdjust="spacing" textLength="160.2344" x="1674.7728" y="337.1426">Web Application - React</text></g><!--cluster Backend--><g class="cluster" data-entity="Backend" data-source-line="41" data-uid="ent0013" id="cluster_Backend"><rect fill="none" height="502" rx="2.5" ry="2.5" style="stroke:#181818;stroke-width:1;" width="1570" x="694.89" y="559.6094"/><text fill="#000000" font-family="sans-serif" font-size="14" font-weight="bold" lengthAdjust="spacing" textLength="323.5654" x="1318.1073" y="576.1426">Backend Application - FastAPI Modular Monolith</text></g><!--entity FEAuth--><g class="entity" data-entity="FEAuth" data-source-line="31" data-uid="ent0006" id="entity_FEAuth"><rect fill="#EAF2FF" height="37.6094" rx="2.5" ry="2.5" style="stroke:#376AA6;stroke-width:0.5;" width="126.6201" x="1833.39" y="356.6094"/><text fill="#000000" font-family="sans-serif" font-size="14" lengthAdjust="spacing" textLength="106.6201" x="1843.39" y="381.1426">Authentication UI</text></g><!--entity Station--><g class="entity" data-entity="Station" data-source-line="32" data-uid="ent0007" id="entity_Station"><rect fill="#EAF2FF" height="37.6094" rx="2.5" ry="2.5" style="stroke:#376AA6;stroke-width:0.5;" width="81.4756" x="1549.39" y="356.6094"/><text fill="#000000" font-family="sans-serif" font-size="14" lengthAdjust="spacing" textLength="61.4756" x="1559.39" y="381.1426">Station UI</text></g><!--entity AdminUI--><g class="entity" data-entity="AdminUI" data-source-line="33" data-uid="ent0008" id="entity_AdminUI"><rect fill="#EAF2FF" height="37.6094" rx="2.5" ry="2.5" style="stroke:#376AA6;stroke-width:0.5;" width="132.0615" x="1665.89" y="356.6094"/><text fill="#000000" font-family="sans-serif" font-size="14" lengthAdjust="spacing" textLength="112.0615" x="1675.89" y="381.1426">Admin Dashboard</text></g><!--entity APIClient--><g class="entity" data-entity="APIClient" data-source-line="34" data-uid="ent0009" id="entity_APIClient"><rect fill="#EAF2FF" height="37.6094" rx="2.5" ry="2.5" style="stroke:#376AA6;stroke-width:0.5;" width="131.2822" x="1607.39" y="455.6094"/><text fill="#000000" font-family="sans-serif" font-size="14" lengthAdjust="spacing" textLength="111.2822" x="1617.39" y="480.1426">Shared API Client</text></g><!--entity API--><g class="entity" data-entity="API" data-source-line="42" data-uid="ent0014" id="entity_API"><rect fill="#EAF2FF" height="37.6094" rx="2.5" ry="2.5" style="stroke:#376AA6;stroke-width:0.5;" width="102.4688" x="1184.89" y="595.6094"/><text fill="#000000" font-family="sans-serif" font-size="14" lengthAdjust="spacing" textLength="82.4688" x="1194.89" y="620.1426">REST API v1</text></g><!--entity Auth--><g class="entity" data-entity="Auth" data-source-line="43" data-uid="ent0015" id="entity_Auth"><rect fill="#EAF2FF" height="37.6094" rx="2.5" ry="2.5" style="stroke:#376AA6;stroke-width:0.5;" width="164.7441" x="855.39" y="789.6094"/><text fill="#000000" font-family="sans-serif" font-size="14" lengthAdjust="spacing" textLength="144.7441" x="865.39" y="814.1426">Authentication &amp; RBAC</text></g><!--entity Lanes--><g class="entity" data-entity="Lanes" data-source-line="44" data-uid="ent0016" id="entity_Lanes"><rect fill="#EAF2FF" height="37.6094" rx="2.5" ry="2.5" style="stroke:#376AA6;stroke-width:0.5;" width="136.751" x="1721.39" y="868.1094"/><text fill="#000000" font-family="sans-serif" font-size="14" lengthAdjust="spacing" textLength="116.751" x="1731.39" y="892.6426">Lane Management</text></g><!--entity Parking--><g class="entity" data-entity="Parking" data-source-line="45" data-uid="ent0017" id="entity_Parking"><rect fill="#EAF2FF" height="37.6094" rx="2.5" ry="2.5" style="stroke:#376AA6;stroke-width:0.5;" width="209.8545" x="1242.89" y="716.6094"/><text fill="#000000" font-family="sans-serif" font-size="14" lengthAdjust="spacing" textLength="189.8545" x="1252.89" y="741.1426">Parking / Check-in / Check-out</text></g><!--entity Tickets--><g class="entity" data-entity="Tickets" data-source-line="46" data-uid="ent0018" id="entity_Tickets"><rect fill="#EAF2FF" height="37.6094" rx="2.5" ry="2.5" style="stroke:#376AA6;stroke-width:0.5;" width="195.8545" x="1893.89" y="868.1094"/><text fill="#000000" font-family="sans-serif" font-size="14" lengthAdjust="spacing" textLength="175.8545" x="1903.89" y="892.6426">Monthly Ticket Management</text></g><!--entity Pricing--><g class="entity" data-entity="Pricing" data-source-line="47" data-uid="ent0019" id="entity_Pricing"><rect fill="#EAF2FF" height="37.6094" rx="2.5" ry="2.5" style="stroke:#376AA6;stroke-width:0.5;" width="110.2754" x="948.89" y="868.1094"/><text fill="#000000" font-family="sans-serif" font-size="14" lengthAdjust="spacing" textLength="90.2754" x="958.89" y="892.6426">Pricing Engine</text></g><!--entity Payments--><g class="entity" data-entity="Payments" data-source-line="48" data-uid="ent0020" id="entity_Payments"><rect fill="#EAF2FF" height="37.6094" rx="2.5" ry="2.5" style="stroke:#376AA6;stroke-width:0.5;" width="160.8545" x="1094.39" y="868.1094"/><text fill="#000000" font-family="sans-serif" font-size="14" lengthAdjust="spacing" textLength="140.8545" x="1104.39" y="892.6426">Payment Management</text></g><!--entity Reports--><g class="entity" data-entity="Reports" data-source-line="49" data-uid="ent0021" id="entity_Reports"><rect fill="#EAF2FF" height="37.6094" rx="2.5" ry="2.5" style="stroke:#376AA6;stroke-width:0.5;" width="80.7031" x="731.39" y="716.6094"/><text fill="#000000" font-family="sans-serif" font-size="14" lengthAdjust="spacing" textLength="60.7031" x="741.39" y="741.1426">Reporting</text></g><!--entity Audit--><g class="entity" data-entity="Audit" data-source-line="50" data-uid="ent0022" id="entity_Audit"><rect fill="#EAF2FF" height="37.6094" rx="2.5" ry="2.5" style="stroke:#376AA6;stroke-width:0.5;" width="105.627" x="926.89" y="1007.6094"/><text fill="#000000" font-family="sans-serif" font-size="14" lengthAdjust="spacing" textLength="85.627" x="936.89" y="1032.1426">Audit Logging</text></g><!--entity ALPR--><g class="entity" data-entity="ALPR" data-source-line="51" data-uid="ent0023" id="entity_ALPR"><rect fill="#EAF2FF" height="55.2188" rx="2.5" ry="2.5" style="stroke:#376AA6;stroke-width:0.5;" width="207.5098" x="1477.89" y="859.6094"/><text fill="#000000" font-family="sans-serif" font-size="14" lengthAdjust="spacing" textLength="92.5928" x="1535.3485" y="884.1426">ALPR Runtime</text><text fill="#000000" font-family="sans-serif" font-size="14" lengthAdjust="spacing" textLength="187.5098" x="1487.89" y="901.752">YOLO + OCR + Normalization</text></g><!--entity CameraAdapter--><g class="entity" data-entity="CameraAdapter" data-source-line="52" data-uid="ent0024" id="entity_CameraAdapter"><rect fill="#EAF2FF" height="37.6094" rx="2.5" ry="2.5" style="stroke:#376AA6;stroke-width:0.5;" width="122.7168" x="2125.39" y="868.1094"/><text fill="#000000" font-family="sans-serif" font-size="14" lengthAdjust="spacing" textLength="102.7168" x="2135.39" y="892.6426">Camera Adapter</text></g><!--entity BarrierAdapter--><g class="entity" data-entity="BarrierAdapter" data-source-line="53" data-uid="ent0025" id="entity_BarrierAdapter"><rect fill="#EAF2FF" height="37.6094" rx="2.5" ry="2.5" style="stroke:#376AA6;stroke-width:0.5;" width="114.9307" x="1290.39" y="868.1094"/><text fill="#000000" font-family="sans-serif" font-size="14" lengthAdjust="spacing" textLength="94.9307" x="1300.39" y="892.6426">Barrier Adapter</text></g><!--entity PaymentAdapter--><g class="entity" data-entity="PaymentAdapter" data-source-line="54" data-uid="ent0026" id="entity_PaymentAdapter"><rect fill="#EAF2FF" height="37.6094" rx="2.5" ry="2.5" style="stroke:#376AA6;stroke-width:0.5;" width="187.3096" x="711.39" y="595.6094"/><text fill="#000000" font-family="sans-serif" font-size="14" lengthAdjust="spacing" textLength="167.3096" x="721.39" y="620.1426">Payment Gateway Adapter</text></g><!--entity StorageAdapter--><g class="entity" data-entity="StorageAdapter" data-source-line="55" data-uid="ent0027" id="entity_StorageAdapter"><rect fill="#EAF2FF" height="37.6094" rx="2.5" ry="2.5" style="stroke:#376AA6;stroke-width:0.5;" width="164.7578" x="711.39" y="868.1094"/><text fill="#000000" font-family="sans-serif" font-size="14" lengthAdjust="spacing" textLength="144.7578" x="721.39" y="892.6426">Image Storage Adapter</text></g><!--entity Jobs--><g class="entity" data-entity="Jobs" data-source-line="56" data-uid="ent0028" id="entity_Jobs"><rect fill="#EAF2FF" height="37.6094" rx="2.5" ry="2.5" style="stroke:#376AA6;stroke-width:0.5;" width="128.1787" x="933.89" y="595.6094"/><text fill="#000000" font-family="sans-serif" font-size="14" lengthAdjust="spacing" textLength="108.1787" x="943.89" y="620.1426">Background Jobs</text></g><!--entity Operator--><g class="entity" data-entity="Operator" data-source-line="26" data-uid="ent0002" id="entity_Operator"><ellipse cx="1604.9105" cy="170.1094" fill="#F5F5F5" rx="8" ry="8" style="stroke:#555555;stroke-width:0.5;"/><path d="M1604.9105,178.1094 L1604.9105,205.1094 M1591.9105,186.1094 L1617.9105,186.1094 M1604.9105,205.1094 L1591.9105,220.1094 M1604.9105,205.1094 L1617.9105,220.1094" fill="none" style="stroke:#555555;stroke-width:0.5;"/><text fill="#000000" font-family="sans-serif" font-size="14" lengthAdjust="spacing" textLength="63.041" x="1573.39" y="236.1426">Nh&#226;n vi&#234;n</text><text fill="#000000" font-family="sans-serif" font-size="14" lengthAdjust="spacing" textLength="57.6064" x="1576.1073" y="253.752">v&#7853;n h&#224;nh</text></g><!--entity Admin--><g class="entity" data-entity="Admin" data-source-line="27" data-uid="ent0003" id="entity_Admin"><ellipse cx="1870.076" cy="178.6094" fill="#F5F5F5" rx="8" ry="8" style="stroke:#555555;stroke-width:0.5;"/><path d="M1870.076,186.6094 L1870.076,213.6094 M1857.076,194.6094 L1883.076,194.6094 M1870.076,213.6094 L1857.076,228.6094 M1870.076,213.6094 L1883.076,228.6094" fill="none" style="stroke:#555555;stroke-width:0.5;"/><text fill="#000000" font-family="sans-serif" font-size="14" lengthAdjust="spacing" textLength="79.3721" x="1830.39" y="244.6426">Qu&#7843;n tr&#7883; vi&#234;n</text></g><!--entity Accountant--><g class="entity" data-entity="Accountant" data-source-line="28" data-uid="ent0004" id="entity_Accountant"><ellipse cx="2075.0209" cy="178.6094" fill="#F5F5F5" rx="8" ry="8" style="stroke:#555555;stroke-width:0.5;"/><path d="M2075.0209,186.6094 L2075.0209,213.6094 M2062.0209,194.6094 L2088.0209,194.6094 M2075.0209,213.6094 L2062.0209,228.6094 M2075.0209,213.6094 L2088.0209,228.6094" fill="none" style="stroke:#555555;stroke-width:0.5;"/><text fill="#000000" font-family="sans-serif" font-size="14" lengthAdjust="spacing" textLength="48.2617" x="2050.89" y="244.6426">K&#7871; to&#225;n</text></g><!--entity MediaMTX--><g class="entity" data-entity="MediaMTX" data-source-line="81" data-uid="ent0049" id="entity_MediaMTX"><rect fill="#FFF4CC" height="55.2188" rx="2.5" ry="2.5" style="stroke:#376AA6;stroke-width:0.5;" width="114.9443" x="1677.39" y="181.6094"/><text fill="#000000" font-family="sans-serif" font-size="14" lengthAdjust="spacing" textLength="67.6826" x="1701.0209" y="206.1426">MediaMTX</text><text fill="#000000" font-family="sans-serif" font-size="14" lengthAdjust="spacing" textLength="94.9443" x="1687.39" y="223.752">Video Gateway</text></g><!--entity Camera--><g class="entity" data-entity="Camera" data-source-line="82" data-uid="ent0050" id="entity_Camera"><rect fill="#FFF4CC" height="37.6094" rx="2.5" ry="2.5" style="stroke:#376AA6;stroke-width:0.5;" width="135.917" x="1666.89" y="45.6094"/><text fill="#000000" font-family="sans-serif" font-size="14" lengthAdjust="spacing" textLength="115.917" x="1676.89" y="70.1426">Camera IP / RTSP</text></g><!--entity Barrier--><g class="entity" data-entity="Barrier" data-source-line="83" data-uid="ent0051" id="entity_Barrier"><rect fill="#FFF4CC" height="37.6094" rx="2.5" ry="2.5" style="stroke:#376AA6;stroke-width:0.5;" width="126.5859" x="551.39" y="1007.6094"/><text fill="#000000" font-family="sans-serif" font-size="14" lengthAdjust="spacing" textLength="106.5859" x="561.39" y="1032.1426">Barrier Controller</text></g><!--entity Bank--><g class="entity" data-entity="Bank" data-source-line="84" data-uid="ent0052" id="entity_Bank"><path d="M532.1711,720.7761 C535.3479,714.9963 540.1963,714.7585 544.5314,719.4027 C547.9008,712.8346 552.2037,712.8267 556.6619,718.3064 C560.4876,712.7682 565.0889,713.9632 568.375,718.9092 C570.8967,712.3989 575.2585,711.8336 579.4426,717.3836 C583.2539,711.8174 586.8126,711.5437 590.8286,717.1754 C594.2103,711.3124 597.9023,710.0774 602.6339,715.8 C606.867,710.929 610.9768,710.4474 614.5806,716.4889 C618.2935,710.9922 623.2857,711.5303 625.6261,717.7796 C629.6284,712.7271 632.9968,713.0641 636.5465,718.2618 C640.4184,713.7981 645.4679,714.5358 648.2399,719.6104 C652.3326,713.4298 657.4068,715.2241 660.4988,720.6658 C663.5874,715.0539 669.1825,715.8008 672.261,720.6771 C679.522,724.2241 680.6741,732.2988 673.9411,737.2632 C681.0316,743.3638 679.1417,749.0178 670.8976,751.9382 C668.5328,756.482 664.0087,757.4238 660.8732,752.7789 C657.7187,758.3608 651.9268,758.3992 648.2137,753.4503 C645.9173,759.0273 641.1956,759.5181 637.1986,755.3781 C632.8221,760.7952 628.6009,761.1236 624.4322,755.1453 C622.1366,760.3007 617.1045,761.8629 613.506,756.4985 C610.5324,761.7411 606.456,761.896 602.5355,757.5858 C598.1071,763.8593 593.4297,762.911 589.5245,757.0259 C585.8905,761.6554 581.5164,761.6297 578.5595,756.2817 C575.2639,760.3294 570.1141,760.2637 567.7588,755.1706 C562.6033,760.0926 558.9922,758.9093 555.5754,753.1814 C552.7917,758.364 547.7836,757.6223 544.8467,753.3552 C540.1242,758.5907 535.7237,758.2211 532.8122,751.5282 C525.2574,748.7395 523.7417,742.5728 529.173,736.6152 C521.4042,730.5272 524.644,723.9689 532.1711,720.7761" fill="#FFF4CC" style="stroke:#A97800;stroke-width:0.5;"/><text fill="#000000" font-family="sans-serif" font-size="14" lengthAdjust="spacing" textLength="125.2959" x="538.39" y="741.1426">VietQR / Ng&#226;n h&#224;ng</text></g><!--entity DB--><g class="entity" data-entity="DB" data-source-line="85" data-uid="ent0053" id="entity_DB"><path d="M403.89,1129.6094 C403.89,1119.6094 462.1346,1119.6094 462.1346,1119.6094 C462.1346,1119.6094 520.3793,1119.6094 520.3793,1129.6094 L520.3793,1173.8281 C520.3793,1183.8281 462.1346,1183.8281 462.1346,1183.8281 C462.1346,1183.8281 403.89,1183.8281 403.89,1173.8281 L403.89,1129.6094" fill="#EAF8EF" style="stroke:#287A4D;stroke-width:0.5;"/><path d="M403.89,1129.6094 C403.89,1139.6094 462.1346,1139.6094 462.1346,1139.6094 C462.1346,1139.6094 520.3793,1139.6094 520.3793,1129.6094" fill="none" style="stroke:#287A4D;stroke-width:0.5;"/><text fill="#000000" font-family="sans-serif" font-size="14" lengthAdjust="spacing" textLength="76.2617" x="424.0038" y="1158.1426">PostgreSQL</text><text fill="#000000" font-family="sans-serif" font-size="14" lengthAdjust="spacing" textLength="96.4893" x="413.89" y="1175.752">Source of Truth</text></g><!--entity Images--><g class="entity" data-entity="Images" data-source-line="86" data-uid="ent0054" id="entity_Images"><path d="M248.39,1004.6094 C248.39,994.6094 310.8695,994.6094 310.8695,994.6094 C310.8695,994.6094 373.349,994.6094 373.349,1004.6094 L373.349,1048.8281 C373.349,1058.8281 310.8695,1058.8281 310.8695,1058.8281 C310.8695,1058.8281 248.39,1058.8281 248.39,1048.8281 L248.39,1004.6094" fill="#EAF8EF" style="stroke:#287A4D;stroke-width:0.5;"/><path d="M248.39,1004.6094 C248.39,1014.6094 310.8695,1014.6094 310.8695,1014.6094 C310.8695,1014.6094 373.349,1014.6094 373.349,1004.6094" fill="none" style="stroke:#287A4D;stroke-width:0.5;"/><text fill="#000000" font-family="sans-serif" font-size="14" lengthAdjust="spacing" textLength="93.3857" x="264.1766" y="1033.1426">Object Storage</text><text fill="#000000" font-family="sans-serif" font-size="14" lengthAdjust="spacing" textLength="104.959" x="258.39" y="1050.752">&#7842;nh ph&#432;&#417;ng ti&#7879;n</text></g><g class="entity" data-entity="GMN76" data-source-line="113" data-uid="ent0077" id="entity_GMN76"><path d="M2283.39,857.6094 L2283.39,916.6641 L2524.787,916.6641 L2524.787,867.6094 L2514.787,857.6094 L2283.39,857.6094" fill="#FEFFDD" style="stroke:#181818;stroke-width:0.5;"/><path d="M2514.787,857.6094 L2514.787,867.6094 L2524.787,867.6094 L2514.787,857.6094" fill="#FEFFDD" style="stroke:#181818;stroke-width:1;"/><text fill="#000000" font-family="sans-serif" font-size="13" lengthAdjust="spacing" textLength="213.916" x="2292.6305" y="876.1045">ALPR l&#224; module n&#7897;i b&#7897; c&#7911;a backend,</text><text fill="#000000" font-family="sans-serif" font-size="13" lengthAdjust="spacing" textLength="176.3062" x="2311.4354" y="892.4561">kh&#244;ng ph&#7843;i microservice ri&#234;ng.</text><text fill="#000000" font-family="sans-serif" font-size="13" lengthAdjust="spacing" textLength="220.397" x="2289.39" y="908.8076">C&#243; th&#7875; thay model qua ALPRRuntime.</text></g><g class="entity" data-entity="GMN79" data-source-line="119" data-uid="ent0080" id="entity_GMN79"><path d="M313.89,1244.6094 L313.89,1287.3125 A0,0 0 0 0 313.89,1287.3125 L610.2894,1287.3125 A0,0 0 0 0 610.2894,1287.3125 L610.2894,1254.6094 L600.2894,1244.6094 L465.89,1244.6094 L461.89,1183.6494 L457.89,1244.6094 L313.89,1244.6094 A0,0 0 0 0 313.89,1244.6094" fill="#FEFFDD" style="stroke:#181818;stroke-width:0.5;"/><path d="M600.2894,1244.6094 L600.2894,1254.6094 L610.2894,1254.6094 L600.2894,1244.6094" fill="#FEFFDD" style="stroke:#181818;stroke-width:0.5;"/><text fill="#000000" font-family="sans-serif" font-size="13" lengthAdjust="spacing" textLength="275.3994" x="319.89" y="1263.1045">PostgreSQL l&#432;u d&#7919; li&#7879;u nghi&#7879;p v&#7909; v&#224; metadata.</text><text fill="#000000" font-family="sans-serif" font-size="13" lengthAdjust="spacing" textLength="117.127" x="399.0262" y="1279.4561">Kh&#244;ng l&#432;u blob &#7843;nh.</text></g><!--link FEAuth to APIClient--><g class="link" data-entity-1="FEAuth" data-entity-2="APIClient" data-source-line="36" data-uid="lnk10" id="link_FEAuth_APIClient"><path d="M1855.28,394.6294 C1815.17,411.9994 1760.316,435.7452 1720.156,453.1352" fill="none" id="FEAuth-to-APIClient" style="stroke:#465568;stroke-width:1;"/><polygon fill="#465568" points="1714.65,455.5194,1724.4984,455.6137,1719.2383,453.5326,1721.3195,448.2725,1714.65,455.5194" style="stroke:#465568;stroke-width:1;"/></g><!--link Station to APIClient--><g class="link" data-entity-1="Station" data-entity-2="APIClient" data-source-line="37" data-uid="lnk11" id="link_Station_APIClient"><path d="M1605.5,394.8494 C1620.34,412.1994 1638.6292,433.5705 1653.4492,450.8905" fill="none" id="Station-to-APIClient" style="stroke:#465568;stroke-width:1;"/><polygon fill="#465568" points="1657.35,455.4494,1654.538,446.0105,1654.0993,451.6503,1648.4595,451.2116,1657.35,455.4494" style="stroke:#465568;stroke-width:1;"/></g><!--link AdminUI to APIClient--><g class="link" data-entity-1="AdminUI" data-entity-2="APIClient" data-source-line="38" data-uid="lnk12" id="link_AdminUI_APIClient"><path d="M1720.79,394.8494 C1710.24,412.1994 1697.587,433.0025 1687.057,450.3225" fill="none" id="AdminUI-to-APIClient" style="stroke:#465568;stroke-width:1;"/><polygon fill="#465568" points="1683.94,455.4494,1692.0333,449.8371,1686.5375,451.177,1685.1975,445.6811,1683.94,455.4494" style="stroke:#465568;stroke-width:1;"/></g><!--link API to Auth--><g class="link" data-entity-1="API" data-entity-2="Auth" data-source-line="58" data-uid="lnk29" id="link_API_Auth"><path d="M1184.76,625.0194 C1153.48,632.3194 1113.52,644.4794 1081.89,663.6094 C1025.31,697.8194 978.1927,754.1217 954.9427,784.5517" fill="none" id="API-to-Auth" style="stroke:#465568;stroke-width:1;"/><polygon fill="#465568" points="951.3,789.3194,959.9425,784.5964,954.3356,785.3463,953.5856,779.7394,951.3,789.3194" style="stroke:#465568;stroke-width:1;"/></g><!--link API to Lanes--><g class="link" data-entity-1="API" data-entity-2="Lanes" data-source-line="59" data-uid="lnk30" id="link_API_Lanes"><path d="M1284.74,633.7194 C1332.76,651.9394 1407.81,681.5894 1470.89,711.6094 C1579.76,763.4194 1698.5834,832.0087 1754.5234,865.0387" fill="none" id="API-to-Lanes" style="stroke:#465568;stroke-width:1;"/><polygon fill="#465568" points="1759.69,868.0894,1753.9739,860.069,1755.3845,865.5472,1749.9064,866.9578,1759.69,868.0894" style="stroke:#465568;stroke-width:1;"/></g><!--link API to Parking--><g class="link" data-entity-1="API" data-entity-2="Parking" data-source-line="60" data-uid="lnk31" id="link_API_Parking"><path d="M1252.9,633.6794 C1273.95,656.0494 1305.4778,689.5502 1326.6078,712.0002" fill="none" id="API-to-Parking" style="stroke:#465568;stroke-width:1;"/><polygon fill="#465568" points="1330.72,716.3694,1327.4644,707.0742,1327.2931,712.7284,1321.6389,712.5572,1330.72,716.3694" style="stroke:#465568;stroke-width:1;"/></g><!--link API to Tickets--><g class="link" data-entity-1="API" data-entity-2="Tickets" data-source-line="61" data-uid="lnk32" id="link_API_Tickets"><path d="M1287.01,630.8894 C1317.3,640.0894 1356.39,652.1894 1390.89,663.6094 C1600.55,733.0394 1840.829,826.3665 1940.699,865.7865" fill="none" id="API-to-Tickets" style="stroke:#465568;stroke-width:1;"/><polygon fill="#465568" points="1946.28,867.9894,1939.3771,860.9644,1941.6292,866.1536,1936.4399,868.4057,1946.28,867.9894" style="stroke:#465568;stroke-width:1;"/></g><!--link API to Pricing--><g class="link" data-entity-1="API" data-entity-2="Pricing" data-source-line="62" data-uid="lnk33" id="link_API_Pricing"><path d="M1220.31,633.7794 C1178.04,683.0594 1065.4967,814.2855 1023.3067,863.4655" fill="none" id="API-to-Pricing" style="stroke:#465568;stroke-width:1;"/><polygon fill="#465568" points="1019.4,868.0194,1028.2959,863.793,1022.6555,864.2245,1022.224,858.5841,1019.4,868.0194" style="stroke:#465568;stroke-width:1;"/></g><!--link API to Payments--><g class="link" data-entity-1="API" data-entity-2="Payments" data-source-line="63" data-uid="lnk34" id="link_API_Payments"><path d="M1231.79,633.7794 C1220.68,683.0594 1191.3798,812.9863 1180.2898,862.1663" fill="none" id="API-to-Payments" style="stroke:#465568;stroke-width:1;"/><polygon fill="#465568" points="1178.97,868.0194,1184.8518,860.1197,1180.0699,863.1418,1177.0478,858.3599,1178.97,868.0194" style="stroke:#465568;stroke-width:1;"/></g><!--link API to Reports--><g class="link" data-entity-1="API" data-entity-2="Reports" data-source-line="64" data-uid="lnk35" id="link_API_Reports"><path d="M1184.43,623.5394 C1133.78,631.8194 1054.42,646.0294 986.89,663.6094 C925.26,679.6494 861.1792,701.7701 818.2792,717.3601" fill="none" id="API-to-Reports" style="stroke:#465568;stroke-width:1;"/><polygon fill="#465568" points="812.64,719.4094,822.465,720.0949,817.3393,717.7016,819.7326,712.576,812.64,719.4094" style="stroke:#465568;stroke-width:1;"/></g><!--link Parking to Lanes--><g class="link" data-entity-1="Parking" data-entity-2="Lanes" data-source-line="66" data-uid="lnk36" id="link_Parking_Lanes"><path d="M1408.06,754.6694 C1432.07,763.3094 1459.31,774.9894 1481.89,789.6094 C1502.21,802.7594 1499.29,816.6994 1520.89,827.6094 C1594.47,864.7494 1623.86,837.9194 1703.89,857.6094 C1715.65,860.4994 1722.4158,862.3687 1734.0958,866.1787" fill="none" id="Parking-to-Lanes" style="stroke:#465568;stroke-width:1;"/><polygon fill="#465568" points="1739.8,868.0394,1732.4842,861.4455,1735.0465,866.4888,1730.0032,869.0511,1739.8,868.0394" style="stroke:#465568;stroke-width:1;"/></g><!--link Parking to ALPR--><g class="link" data-entity-1="Parking" data-entity-2="ALPR" data-source-line="67" data-uid="lnk37" id="link_Parking_ALPR"><path d="M1388.27,754.6294 C1407.8,764.0294 1431.22,776.3294 1450.89,789.6094 C1472.31,804.0694 1474.35,811.9294 1494.89,827.6094 C1509.21,838.5494 1520.4714,846.4507 1535.0214,856.1107" fill="none" id="Parking-to-ALPR" style="stroke:#465568;stroke-width:1;"/><polygon fill="#465568" points="1540.02,859.4294,1534.7345,851.1189,1535.8545,856.6638,1530.3096,857.7838,1540.02,859.4294" style="stroke:#465568;stroke-width:1;"/></g><!--link Parking to Tickets--><g class="link" data-entity-1="Parking" data-entity-2="Tickets" data-source-line="68" data-uid="lnk38" id="link_Parking_Tickets"><path d="M1428.49,754.6694 C1532.12,777.9794 1717.6,820.0294 1875.89,857.6094 C1889.91,860.9394 1899.0418,863.1338 1913.3918,866.6438" fill="none" id="Parking-to-Tickets" style="stroke:#465568;stroke-width:1;"/><polygon fill="#465568" points="1919.22,868.0694,1911.4281,862.0456,1914.3632,866.8814,1909.5273,869.8165,1919.22,868.0694" style="stroke:#465568;stroke-width:1;"/></g><!--link Parking to Pricing--><g class="link" data-entity-1="Parking" data-entity-2="Pricing" data-source-line="69" data-uid="lnk39" id="link_Parking_Pricing"><path d="M1306.4,754.6394 C1240.28,783.3794 1117.2429,836.8482 1051.0329,865.6182" fill="none" id="Parking-to-Pricing" style="stroke:#465568;stroke-width:1;"/><polygon fill="#465568" points="1045.53,868.0094,1055.3785,868.0912,1050.1158,866.0167,1052.1903,860.754,1045.53,868.0094" style="stroke:#465568;stroke-width:1;"/></g><!--link Parking to Payments--><g class="link" data-entity-1="Parking" data-entity-2="Payments" data-source-line="70" data-uid="lnk40" id="link_Parking_Payments"><path d="M1327.02,754.6394 C1293.77,783.3794 1233.6702,835.3168 1200.3702,864.0868" fill="none" id="Parking-to-Payments" style="stroke:#465568;stroke-width:1;"/><polygon fill="#465568" points="1195.83,868.0094,1205.2554,865.1523,1199.6135,864.7406,1200.0253,859.0987,1195.83,868.0094" style="stroke:#465568;stroke-width:1;"/></g><!--link Parking to CameraAdapter--><g class="link" data-entity-1="Parking" data-entity-2="CameraAdapter" data-source-line="71" data-uid="lnk41" id="link_Parking_CameraAdapter"><path d="M1453.04,747.0094 C1600.9,763.0694 1877.91,798.3794 2107.89,857.6094 C2118.9,860.4494 2124.8849,862.1946 2135.7449,866.0446" fill="none" id="Parking-to-CameraAdapter" style="stroke:#465568;stroke-width:1;"/><polygon fill="#465568" points="2141.4,868.0494,2134.2538,861.272,2136.6874,866.3787,2131.5807,868.8122,2141.4,868.0494" style="stroke:#465568;stroke-width:1;"/></g><!--link Parking to BarrierAdapter--><g class="link" data-entity-1="Parking" data-entity-2="BarrierAdapter" data-source-line="72" data-uid="lnk42" id="link_Parking_BarrierAdapter"><path d="M1347.89,754.6394 C1347.89,783.3794 1347.89,833.2394 1347.89,862.0094" fill="none" id="Parking-to-BarrierAdapter" style="stroke:#465568;stroke-width:1;"/><polygon fill="#465568" points="1347.89,868.0094,1351.89,859.0094,1347.89,863.0094,1343.89,859.0094,1347.89,868.0094" style="stroke:#465568;stroke-width:1;"/></g><!--link Parking to StorageAdapter--><g class="link" data-entity-1="Parking" data-entity-2="StorageAdapter" data-source-line="73" data-uid="lnk43" id="link_Parking_StorageAdapter"><path d="M1266.59,754.6094 C1227.13,763.9694 1179.2,776.2294 1136.89,789.6094 C1091.95,803.8194 1082.9,813.6394 1037.89,827.6094 C984.84,844.0694 929.9697,857.3593 882.3697,867.8393" fill="none" id="Parking-to-StorageAdapter" style="stroke:#465568;stroke-width:1;"/><polygon fill="#465568" points="876.51,869.1294,886.1596,871.1006,881.3931,868.0543,884.4394,863.2878,876.51,869.1294" style="stroke:#465568;stroke-width:1;"/></g><!--link Auth to Audit--><g class="link" data-entity-1="Auth" data-entity-2="Audit" data-source-line="74" data-uid="lnk44" id="link_Auth_Audit"><path d="M934.04,827.6194 C930.1,849.0694 925.41,885.8394 931.89,916.6094 C939,950.3994 954.3143,981.2622 966.1543,1002.2722" fill="none" id="Auth-to-Audit" style="stroke:#465568;stroke-width:1;"/><polygon fill="#465568" points="969.1,1007.4994,968.1662,997.6949,966.6452,1003.1434,961.1967,1001.6225,969.1,1007.4994" style="stroke:#465568;stroke-width:1;"/></g><!--link Parking to Audit--><g class="link" data-entity-1="Parking" data-entity-2="Audit" data-source-line="75" data-uid="lnk45" id="link_Parking_Audit"><path d="M1366.86,754.8694 C1400.43,789.3894 1463.09,865.3194 1422.89,916.6094 C1374.95,977.7794 1146.1366,1008.5869 1039.1566,1019.9269" fill="none" id="Parking-to-Audit" style="stroke:#465568;stroke-width:1;"/><polygon fill="#465568" points="1033.19,1020.5594,1042.5615,1023.5884,1038.1621,1020.0323,1041.7182,1015.633,1033.19,1020.5594" style="stroke:#465568;stroke-width:1;"/></g><!--link Payments to Audit--><g class="link" data-entity-1="Payments" data-entity-2="Audit" data-source-line="76" data-uid="lnk46" id="link_Payments_Audit"><path d="M1149,906.3694 C1111.6,932.7394 1047.7738,977.7421 1010.4838,1004.0321" fill="none" id="Payments-to-Audit" style="stroke:#465568;stroke-width:1;"/><polygon fill="#465568" points="1005.58,1007.4894,1015.2406,1005.5727,1009.6665,1004.6083,1010.6309,999.0343,1005.58,1007.4894" style="stroke:#465568;stroke-width:1;"/></g><!--link Jobs to Reports--><g class="link" data-entity-1="Jobs" data-entity-2="Reports" data-source-line="77" data-uid="lnk47" id="link_Jobs_Reports"><path d="M933.52,631.6194 C897.2,641.3494 855.95,653.7394 839.89,663.6094 C817.49,677.3694 801.1124,695.5245 788.6824,711.5845" fill="none" id="Jobs-to-Reports" style="stroke:#465568;stroke-width:1;"/><polygon fill="#465568" points="785.01,716.3294,793.6818,711.6604,788.0703,712.3753,787.3553,706.7638,785.01,716.3294" style="stroke:#465568;stroke-width:1;"/></g><!--link Jobs to StorageAdapter--><g class="link" data-entity-1="Jobs" data-entity-2="StorageAdapter" data-source-line="78" data-uid="lnk48" id="link_Jobs_StorageAdapter"><path d="M981.48,633.7494 C953.81,664.6794 896.72,730.0894 853.89,789.6094 C834.99,815.8694 818.6862,842.8968 807.2462,862.6568" fill="none" id="Jobs-to-StorageAdapter" style="stroke:#465568;stroke-width:1;"/><polygon fill="#465568" points="804.24,867.8494,812.211,862.0647,806.7452,863.5222,805.2876,858.0564,804.24,867.8494" style="stroke:#465568;stroke-width:1;"/></g><!--link Operator to Station--><g class="link" data-entity-1="Operator" data-entity-2="Station" data-source-line="88" data-uid="lnk55" id="link_Operator_Station"><path d="M1600.63,256.8094 C1597.62,289.8594 1594.2859,326.4343 1592.1059,350.2943" fill="none" id="Operator-to-Station" style="stroke:#465568;stroke-width:1;"/><polygon fill="#465568" points="1591.56,356.2694,1596.3623,347.6707,1592.0149,351.2901,1588.3955,346.9428,1591.56,356.2694" style="stroke:#465568;stroke-width:1;"/></g><!--link Admin to AdminUI--><g class="link" data-entity-1="Admin" data-entity-2="AdminUI" data-source-line="89" data-uid="lnk56" id="link_Admin_AdminUI"><path d="M1837.88,248.2594 C1809.38,282.2394 1772.7661,325.8826 1751.0061,351.8226" fill="none" id="Admin-to-AdminUI" style="stroke:#465568;stroke-width:1;"/><polygon fill="#465568" points="1747.15,356.4194,1755.9987,352.0949,1750.3634,352.5887,1749.8696,346.9534,1747.15,356.4194" style="stroke:#465568;stroke-width:1;"/></g><!--link Accountant to AdminUI--><g class="link" data-entity-1="Accountant" data-entity-2="AdminUI" data-source-line="90" data-uid="lnk57" id="link_Accountant_AdminUI"><path d="M2050.75,217.3394 C2003.82,231.8894 1897.72,267.2294 1815.89,312.6094 C1793.22,325.1794 1774.3237,339.2622 1757.9437,352.5922" fill="none" id="Accountant-to-AdminUI" style="stroke:#465568;stroke-width:1;"/><polygon fill="#465568" points="1753.29,356.3794,1762.7954,353.8011,1757.1681,353.2234,1757.7458,347.5961,1753.29,356.3794" style="stroke:#465568;stroke-width:1;"/></g><!--link Operator to FEAuth--><g class="link" data-entity-1="Operator" data-entity-2="FEAuth" data-source-line="91" data-uid="lnk58" id="link_Operator_FEAuth"><path d="M1636.68,240.8394 C1643.9,246.6894 1651.84,252.3094 1659.89,256.6094 C1702.71,279.4494 1719.73,268.8394 1764.89,286.6094 C1788.57,295.9294 1794.37,299.0394 1815.89,312.6094 C1837.01,325.9194 1854.7961,339.5801 1870.6861,352.5801" fill="none" id="Operator-to-FEAuth" style="stroke:#465568;stroke-width:1;"/><polygon fill="#465568" points="1875.33,356.3794,1870.897,347.5846,1871.4601,353.2133,1865.8313,353.7764,1875.33,356.3794" style="stroke:#465568;stroke-width:1;"/></g><!--link Admin to FEAuth--><g class="link" data-entity-1="Admin" data-entity-2="FEAuth" data-source-line="92" data-uid="lnk59" id="link_Admin_FEAuth"><path d="M1876.15,248.2594 C1881.73,282.2394 1888.6799,324.5583 1892.9299,350.4983" fill="none" id="Admin-to-FEAuth" style="stroke:#465568;stroke-width:1;"/><polygon fill="#465568" points="1893.9,356.4194,1896.3922,346.8911,1893.0916,351.4852,1888.4975,348.1845,1893.9,356.4194" style="stroke:#465568;stroke-width:1;"/></g><!--link Accountant to FEAuth--><g class="link" data-entity-1="Accountant" data-entity-2="FEAuth" data-source-line="93" data-uid="lnk60" id="link_Accountant_FEAuth"><path d="M2083.84,248.5094 C2085.95,266.9694 2084.95,288.5194 2073.89,304.6094 C2048.52,341.4994 2006.294,357.726 1966.634,365.986" fill="none" id="Accountant-to-FEAuth" style="stroke:#465568;stroke-width:1;"/><polygon fill="#465568" points="1960.76,367.2094,1970.3865,369.2903,1965.655,366.1899,1968.7554,361.4583,1960.76,367.2094" style="stroke:#465568;stroke-width:1;"/></g><!--link APIClient to API--><g class="link" data-entity-1="APIClient" data-entity-2="API" data-source-line="95" data-uid="lnk61" id="link_APIClient_API"><path d="M1615.76,493.6494 C1529.93,520.7594 1374.7517,569.7632 1292.6417,595.6832" fill="none" id="APIClient-to-API" style="stroke:#465568;stroke-width:1;"/><polygon fill="#465568" points="1286.92,597.4894,1296.7067,598.5946,1291.6881,595.9842,1294.2984,590.9656,1286.92,597.4894" style="stroke:#465568;stroke-width:1;"/><text fill="#000000" font-family="sans-serif" font-size="13" lengthAdjust="spacing" textLength="133.6245" x="1506.89" y="540.1045">HTTPS / REST / JSON</text></g><!--link Camera to MediaMTX--><g class="link" data-entity-1="Camera" data-entity-2="MediaMTX" data-source-line="96" data-uid="lnk62" id="link_Camera_MediaMTX"><path d="M1734.89,83.6594 C1734.89,108.3694 1734.89,146.9294 1734.89,175.4794" fill="none" id="Camera-to-MediaMTX" style="stroke:#465568;stroke-width:1;"/><polygon fill="#465568" points="1734.89,181.4794,1738.89,172.4794,1734.89,176.4794,1730.89,172.4794,1734.89,181.4794" style="stroke:#465568;stroke-width:1;"/><text fill="#000000" font-family="sans-serif" font-size="13" lengthAdjust="spacing" textLength="34.6709" x="1735.89" y="128.1045">RTSP</text></g><!--link MediaMTX to Station--><g class="link" data-entity-1="MediaMTX" data-entity-2="Station" data-source-line="97" data-uid="lnk63" id="link_MediaMTX_Station"><path d="M1711.27,236.9094 C1681.58,270.5894 1635.3771,322.998 1609.8371,351.978" fill="none" id="MediaMTX-to-Station" style="stroke:#465568;stroke-width:1;"/><polygon fill="#465568" points="1605.87,356.4794,1614.8215,352.372,1609.1759,352.7282,1608.8197,347.0826,1605.87,356.4794" style="stroke:#465568;stroke-width:1;"/><text fill="#000000" font-family="sans-serif" font-size="13" lengthAdjust="spacing" textLength="89.5718" x="1666.89" y="301.1045">HLS / WebRTC</text></g><!--link CameraAdapter to MediaMTX--><g class="link" data-entity-1="CameraAdapter" data-entity-2="MediaMTX" data-source-line="98" data-uid="lnk64" id="link_CameraAdapter_MediaMTX"><path d="M2137.78,868.0994 C2086.63,845.7994 2013.89,802.4994 2013.89,736.6094 C2013.89,374.6094 2013.89,374.6094 2013.89,374.6094 C2013.89,271.0194 1906.91,300.1094 1812.89,256.6094 C1800.44,250.8494 1792.5996,246.7186 1780.8596,239.6986" fill="none" id="CameraAdapter-to-MediaMTX" style="stroke:#465568;stroke-width:1;"/><polygon fill="#465568" points="1775.71,236.6194,1781.3816,244.6713,1780.0013,239.1854,1785.4872,237.8052,1775.71,236.6194" style="stroke:#465568;stroke-width:1;"/><text fill="#000000" font-family="sans-serif" font-size="13" lengthAdjust="spacing" textLength="107.6689" x="2014.89" y="540.1045">Stream / Snapshot</text></g><!--link BarrierAdapter to Barrier--><g class="link" data-entity-1="BarrierAdapter" data-entity-2="Barrier" data-source-line="99" data-uid="lnk65" id="link_BarrierAdapter_Barrier"><path d="M1305.6,906.1094 C1295.06,910.0594 1283.69,913.8694 1272.89,916.6094 C1021.64,980.3994 945.93,929.9994 694.89,994.6094 C682.05,997.9094 674.058,1000.4844 661.808,1005.2744" fill="none" id="BarrierAdapter-to-Barrier" style="stroke:#465568;stroke-width:1;"/><polygon fill="#465568" points="656.22,1007.4594,666.0587,1007.9072,660.8767,1005.6385,663.1453,1000.4565,656.22,1007.4594" style="stroke:#465568;stroke-width:1;"/><text fill="#000000" font-family="sans-serif" font-size="13" lengthAdjust="spacing" textLength="89.5972" x="1106.89" y="961.1045">Device protocol</text></g><!--link PaymentAdapter to Bank--><g class="link" data-entity-1="PaymentAdapter" data-entity-2="Bank" data-source-line="100" data-uid="lnk66" id="link_PaymentAdapter_Bank"><path d="M728.73,633.6094 C706.71,640.8594 683.38,650.6594 663.89,663.6094 C644.95,676.1994 631.7035,691.0371 620.2135,706.4671" fill="none" id="PaymentAdapter-to-Bank" style="stroke:#465568;stroke-width:1;"/><polygon fill="#465568" points="616.63,711.2794,625.2135,706.4499,619.6163,707.2691,618.7971,701.6719,616.63,711.2794" style="stroke:#465568;stroke-width:1;"/><text fill="#000000" font-family="sans-serif" font-size="13" lengthAdjust="spacing" textLength="132.9326" x="664.89" y="678.1045">HTTPS API / Webhook</text></g><!--link Auth to DB--><g class="link" data-entity-1="Auth" data-entity-2="DB" data-source-line="102" data-uid="lnk67" id="link_Auth_DB"><path d="M855.32,818.1394 C684.71,837.7194 303.13,892.2494 230.89,994.6094 C211.67,1021.8394 211.61,1042.4194 230.89,1069.6094 C269.85,1124.5594 343.1523,1141.8977 397.8723,1147.5977" fill="none" id="Auth-to-DB" style="stroke:#465568;stroke-width:1;"/><polygon fill="#465568" points="403.84,1148.2194,395.3029,1143.3084,398.8669,1147.7013,394.474,1151.2654,403.84,1148.2194" style="stroke:#465568;stroke-width:1;"/></g><!--link Lanes to DB--><g class="link" data-entity-1="Lanes" data-entity-2="DB" data-source-line="103" data-uid="lnk68" id="link_Lanes_DB"><path d="M1737.82,906.1994 C1726.68,909.8294 1714.94,913.4894 1703.89,916.6094 C1417.01,997.5794 1343.97,1015.2494 1050.89,1069.6094 C857.81,1105.4294 632.3741,1132.0836 526.2441,1143.7536" fill="none" id="Lanes-to-DB" style="stroke:#465568;stroke-width:1;"/><polygon fill="#465568" points="520.28,1144.4094,529.6633,1147.4017,525.25,1143.8629,528.7889,1139.4496,520.28,1144.4094" style="stroke:#465568;stroke-width:1;"/></g><!--link Parking to DB--><g class="link" data-entity-1="Parking" data-entity-2="DB" data-source-line="104" data-uid="lnk69" id="link_Parking_DB"><path d="M1242.49,741.2194 C1020.17,752.2794 510.83,784.9394 354.89,857.6094 C251.19,905.9294 153.43,969.5494 208.89,1069.6094 C228.06,1104.1994 329.1868,1127.7258 397.7568,1140.1958" fill="none" id="Parking-to-DB" style="stroke:#465568;stroke-width:1;"/><polygon fill="#465568" points="403.66,1141.2694,395.5209,1135.7236,398.7407,1140.3748,394.0895,1143.5945,403.66,1141.2694" style="stroke:#465568;stroke-width:1;"/></g><!--link Tickets to DB--><g class="link" data-entity-1="Tickets" data-entity-2="DB" data-source-line="105" data-uid="lnk70" id="link_Tickets_DB"><path d="M1930.96,906.2194 C1805.7,942.7694 1509.72,1025.5894 1255.89,1069.6094 C982.84,1116.9594 657.7998,1139.4189 526.0398,1147.1289" fill="none" id="Tickets-to-DB" style="stroke:#465568;stroke-width:1;"/><polygon fill="#465568" points="520.05,1147.4794,529.2683,1150.9468,525.0415,1147.1873,528.801,1142.9605,520.05,1147.4794" style="stroke:#465568;stroke-width:1;"/></g><!--link Pricing to DB--><g class="link" data-entity-1="Pricing" data-entity-2="DB" data-source-line="106" data-uid="lnk71" id="link_Pricing_DB"><path d="M948.63,904.5294 C931.25,909.1194 911.9,913.6594 893.89,916.6094 C847.5,924.1994 504.76,913.0094 471.89,946.6094 C427.26,992.2394 438.9173,1068.7458 450.6873,1113.6058" fill="none" id="Pricing-to-DB" style="stroke:#465568;stroke-width:1;"/><polygon fill="#465568" points="452.21,1119.4094,453.795,1109.6889,450.9411,1114.5731,446.0569,1111.7192,452.21,1119.4094" style="stroke:#465568;stroke-width:1;"/></g><!--link Payments to DB--><g class="link" data-entity-1="Payments" data-entity-2="DB" data-source-line="107" data-uid="lnk72" id="link_Payments_DB"><path d="M1118.25,906.1394 C1104.79,909.9894 1090.41,913.7594 1076.89,916.6094 C838.34,966.9794 728.88,848.2494 533.89,994.6094 C493.45,1024.9594 476.2749,1077.6464 468.4249,1113.7464" fill="none" id="Payments-to-DB" style="stroke:#465568;stroke-width:1;"/><polygon fill="#465568" points="467.15,1119.6094,472.971,1111.6648,468.2124,1114.7236,465.1537,1109.965,467.15,1119.6094" style="stroke:#465568;stroke-width:1;"/></g><!--link Reports to DB--><g class="link" data-entity-1="Reports" data-entity-2="DB" data-source-line="108" data-uid="lnk73" id="link_Reports_DB"><path d="M731.31,750.8794 C719.98,754.3194 707.57,757.5794 695.89,759.6094 C630.34,770.9994 143.74,741.3994 97.89,789.6094 C6,886.2194 11.75,987.8394 97.89,1089.6094 C136.39,1135.0994 305.103,1146.4997 397.763,1149.4297" fill="none" id="Reports-to-DB" style="stroke:#465568;stroke-width:1;"/><polygon fill="#465568" points="403.76,1149.6194,394.8909,1145.3369,398.7625,1149.4613,394.6381,1153.3329,403.76,1149.6194" style="stroke:#465568;stroke-width:1;"/></g><!--link Audit to DB--><g class="link" data-entity-1="Audit" data-entity-2="DB" data-source-line="109" data-uid="lnk74" id="link_Audit_DB"><path d="M926.89,1040.1994 C829.16,1063.3994 627.1576,1111.3628 525.7776,1135.4428" fill="none" id="Audit-to-DB" style="stroke:#465568;stroke-width:1;"/><polygon fill="#465568" points="519.94,1136.8294,529.6208,1138.6413,524.8047,1135.6739,527.772,1130.8578,519.94,1136.8294" style="stroke:#465568;stroke-width:1;"/></g><!--link StorageAdapter to Images--><g class="link" data-entity-1="StorageAdapter" data-entity-2="Images" data-source-line="110" data-uid="lnk75" id="link_StorageAdapter_Images"><path d="M711.24,894.8894 C612.69,903.9294 454.55,921.7294 400.89,946.6094 C376.75,957.7994 358.4313,973.2462 341.9613,990.1962" fill="none" id="StorageAdapter-to-Images" style="stroke:#465568;stroke-width:1;"/><polygon fill="#465568" points="337.78,994.4994,346.9207,990.8322,341.2644,990.9134,341.1832,985.2572,337.78,994.4994" style="stroke:#465568;stroke-width:1;"/></g><!--link ALPR to GMN76--><g class="link" data-entity-1="ALPR" data-entity-2="GMN76" data-source-line="113" data-uid="lnk78" id="link_ALPR_GMN76"><path d="M1618.68,859.4394 C1645.56,841.0194 1683.75,818.4694 1721.39,808.6094 C1947.53,749.3494 2019.9,754.7494 2247.39,808.6094 C2287.32,818.0594 2328.66,839.3794 2358.81,857.4094" fill="none" id="ALPR-GMN76" style="stroke:#465568;stroke-width:1;stroke-dasharray:7,7;"/></g><!--SRC=[TLRDRnj55B_lN_5a90I2DANaYnwG72UXRft4iTq08ZsCTwUxWzSpo-pO8Q2UE234YIEtjWWX8I4gmIa-SB2K_yF_2M- -TcUTr9RMdlT-xsFUvogcSWhdh6I2zucSm0PqnBGGd7851uoaaapXlKUhnO-WijNY5vv29fOlESHu-ebdxqTHEM6y81et9l4abMB6aux8XOHtZimdG9GPISGbGotFILxIW1DxgqDrXHv96Yl2qpo45AYUfFJjW8G-9xDSZUYtgfspb4_r9M9yK1cWsbAAI-VWrixszixUNMx0zn70_lg53jj73_12o14oeT9HFzxTQRTteXUXAqIHCIdfMzNi7TvIys1ljxrrq50JvsAMtAq30xlLwQphQ7-oktV_VaC7YHLoxjQnhR_hEhRD1tL4LhHraYrVSvYpvP_yWizNrtznoB06iXQG4auBAWd2FFXijhh-ZOEIgyNFLiR0sicKSOzvihh-3vHOldAyE4QdC9qgYboIeVKv7KExA78M4uN5YOKve2Xk18wamAHo6vclsZELOSOyy6dtcS4SQhhc3rM3uOv6KZi51wJCneB8v5dbwDEk4So8f0cq-rtev0nDM42_QqyHOgmLsDZuDA23jt6BxfIlqLy4rzOvqZThNls8b4gxSIoIMKua_dAHCsKpu4LCC0Q7mv7nUFwHz_QE6BqBW_rsnm9Sb7g4KpWc7BsO-gjgMgcPUZJehjs4JaRZoGP6pVyLCujr48r6xrIMNy68eMDgNQcbMhMInLhj8KyPfrQD9LcZLwQ3r-GTsIWOq498XNZ3iQVItZTX2deYJJtJK0ohrn_00EkDJUa5__AqTmeVm6bdWCyJ8QSaPz-P85af16kX3fbYcMF-I87JnB0ioL4qPfz8oQXiW1mjGFbRVKOKlIHN3RJZ1UZkL5V54Bj6_uPOHslOz-qDZyMuD2ZzHzUfhWXJT3RR_kWJxCzr4ZsbpbQ5gJ9KIrKPyIIV2YJvsWdjXJGNuf1K6msfjU46jJOUajUp4_9k9ILatefhtU2kWXhELpJhHOEeWz-8Ha1QCuCZe5uzhMEQC78y-kA2dxE42byhfjizhze0WPohqcuVktCm6lPRTPtU1VS5sy5-bIBFgMm5DLjBc2NKEcTKdGrGyqcgru7U0Ad3yqbKBRnMNvGgbNHurhlWGp6JCGNn74PoviRLmNu0FXr_ZOlSH-E2hwvVymoAxERDpIiCiMBuvc6NXEa4B2Y_RrmKxIotWzp4tetlUgSqo0rfjo9gOKzeoZfgL0riFxxX8JmQZVf37MqzTZVXyV3q9781rw0gMGzDFgBg73YljVIq3jnuWr4dQbJkkfQXaXHt-YOCEIdAJAYeMSnXVIFyWCuPnh-GGebOv55pm3WmdrGNqPSoZcH2JF36llGnPwPr_I5i0JowVgsuRgnNuA0tyEowmH_jg7Q7PbiOgayy5mfV-rYQALrFRcgOOPulNy9KRqOAVBNubS4Odn2l5dyGyqwAo_53n4wovR_eLP7X2mg3AOkbAAaq0PBwFIMzXw3EyX_pfli3Fd4wergQmpSpOYovhN4lqkjM- -Ey6Wkbn5IxXLV0OL1r0EGtRsQGh1P_GwvBUGOypVIV0kQhnUymrvvJHNH3QEjFh8j6QfoBCUXtgQoszpy0]--></g></svg>